<?xml version="1.0" encoding="utf-8"?>
<!-- Generator: Adobe Illustrator 27.0.0, SVG Export Plug-In . SVG Version: 6.00 Build 0)  -->
<svg version="1.1" xmlns="http://www.w3.org/2000/svg" xmlns:xlink="http://www.w3.org/1999/xlink" x="0px" y="0px"
	 viewBox="0 0 800 800" style="enable-background:new 0 0 800 800;" xml:space="preserve">
<style type="text/css">
	.st0{fill:#E5E1DF;}
	.st1{fill:#B5B5B5;}
	.st2{fill:#757373;}
</style>
<g id="Capa_1">
	<path class="st0" d="M637.45,632.63c-1.36-3.79-1.32-5.56-1.32-5.56c-0.46-6.14-4.69-8.87-4.69-8.87c-1.33-1.16-0.4-8.21-0.4-8.21
		c0.19-3.25,6.6-14.18,6.6-14.18c0.99-5.96-8.53-5.55-8.53-5.55c-2.73,0.17-1.74-2.98-1.74-2.98l0-2.7
		c0.68-2.93-2.32-4.16-2.32-4.16c-0.75-0.14-0.56-0.85-0.56-0.85c0.22-1.11-0.79-2.26-0.79-2.26c0.56-5.46-5.81-8.81-5.81-8.81
		c-1.33-0.28-2.31-3.78-2.31-3.78c-0.98-2.8-3.52-4.37-3.52-4.37c-6.92-8.25-28.39,3.44-28.39,3.44c-0.1,1.03-16.71,1.44-16.71,1.44
		c3.92-0.41,8.75-12.77,8.75-12.77c8.7-4,13.57-16.32,13.57-16.32c18.3-32.03-15.02-72.98-15.02-72.98
		c-4.16-1.8-5.35-10.94-5.35-10.94c0.19-9.01-2.72-27.02-2.72-27.02c-0.72-1.35-0.82-6.28-0.82-6.28c1.45-6.16,0.3-17.77,0.3-17.77
		c-0.03-0.19-0.06-0.38-0.09-0.57c-1.78-11.82,1.24-16.67,1.24-16.67c3.29,7.34,10.07,1.19,10.07,1.19c2.87,1.23,5-1.78,5-1.78
		c-0.21-1.51,8.7-9.15,8.7-9.15c2.82-3.86-0.59-8.16-0.59-8.16c-2.08-0.74-1.04-6.67-1.04-6.67c1.33-4.89-3.71-6.23-3.71-6.23
		c-2.08-0.89-4.45-5.19-4.45-5.19c1.04-3.41-4.6-4.45-4.6-4.45c-2.37-0.15-3.82-3.68-3.82-3.68c-0.67-2.01-5.18-2.59-5.18-2.59
		c-1.08,1.17-9.35-0.63-9.35-0.63c-4.56-0.11-8.68,6.85-8.68,6.85c-26.07-2.15-32.67,15.64-32.67,15.64
		c-4.91,9.2-0.05,17.39-0.05,17.39c-1.78,15,2.2,44.48,2.2,44.48c1.82,3.63,1.39,16.38,1.39,16.38c-2.6-1.18-5.37,0.71-5.37,0.71
		c-9,3.95-19.56-12.11-19.56-12.11c0-0.27-0.03-0.56-0.09-0.85c-1.32-6.38-16.33-17.08-16.33-17.08
		c-4.53-0.94-10.76-7.55-10.76-7.55c-10.38-11.89-44.19-29.63-44.19-29.63c-4.39-1.83-0.83-19.9-0.83-19.9
		c2.75-3.34,8.33-32.15,8.33-32.15c0.4-9.3,5.14-19.31,5.14-19.31c16.37-37.6,0.11-81.24,0.11-81.24
		c-2.69-3.83-3.62-13.55-3.62-13.55c0.1-6.1-3.93-13.65-3.93-13.65c-0.52-0.31-1.1-3.42-1.1-3.42c0.44-6.03-4-10.68-4-10.68
		c-1.39-0.09-4.29-6.26-4.29-6.26c-8.15-15.01-24.12-16.93-24.12-16.93c-2.83,0.74-8.31-1.94-8.31-1.94
		c-44.67-27.62-136.16-31.5-136.16-31.5c-0.19-1.5-11.16-4.12-11.16-4.12c-1.81,0.06-2.04-0.42-2.04-0.42
		c-0.88-2.5-12.36-4.41-12.36-4.41c-4.41,0.29-5.69-1.92-5.69-1.92c0-3.33-9.19-8.82-9.19-8.82c-4.73-0.18-7.87-6.37-7.87-6.37
		c-9.09-13.29-21.73-22.46-21.73-22.46c1.17-2.06-2.42-8.62-2.42-8.62c-1.08-0.18-4.69-10.61-4.69-10.61
		c-4.72-7.91-11.38-0.97-11.38-0.97c-10.27-5.41-11.66,4.58-11.66,4.58c-8.33-0.69-7.08,6.66-7.08,6.66
		c-9.99-0.28-6.11,9.16-6.11,9.16c-5.69,0-2.56,12.23-2.56,12.23c0,2.32-1.42,9.93-1.42,9.93c-3.35,6.45-0.26,11.22-0.26,11.22
		c2.32,2.71,1.87,4.51,1.87,4.51c-0.67,9.4,3.36,18.35,3.36,18.35c6.94,20.59,5.39,31.76,5.39,31.76
		c3.21,27.96,25.67,22.92,25.67,22.92c18.61-3.07,30.45,4.87,30.45,4.87c16.42,18.42,41.65,32.64,41.65,32.64
		c15.62,9.61,47.21,1.42,47.21,1.42c2.57,3.21-8.12,21.13-8.12,21.13c-20.69,44.82-12.05,86.93-12.05,86.93
		c1.78,11.77-3.57,22.2-3.57,22.2c-19.59,34.06-5.15,51.76-5.15,51.76c1.5,1.5,3.73,6.77,3.73,6.77
		c-0.96,7.95,9.74,18.06,9.74,18.06c2.47,0.77,5.57,2.78,5.57,2.78c10.67,21.96,36.84,23.99,36.84,23.99
		c30.72,9.11,55.93,38.34,55.93,38.34c1.58,4.15,5.06,10.06,8.32,15.19c7.67,4.99,13.07,11.7,16.68,19.37
		c6.95,8.44,12.94,19.39,12.94,19.39l22.92,37.33c26.11,30.37,47.13,30.94,47.13,30.94c21.09,7.29,31.46,3.06,31.46,3.06
		c6.47-4.24,10.56-3.09,10.56-3.09c2.37-0.29,1.94,0.73,1.94,0.73c-3.2,5.12,3.84,9.86,3.84,9.86c-8.99,2.47-13.87,9.34-16.52,16.26
		c9.59,7.06,14.86,21.06,15.02,32.21c0,0.15,0.01,0.29,0.01,0.44c1.51,1.43,2.32,2.28,0.01,0.32c0,0,0,0,0,0.01
		c2.03,1.75,4.01,3.52,6.17,5.12c0.61,0.45,4.43,2.75,4.39,2.93c4.1,1.76,8.42,3.02,12.69,4.23c5.33,1.51,9.53,4.61,12.79,8.6
		c12.97-7.3,26.41-12.7,41.02-15.7c6.55-1.34,13.72-3.01,20.61-3.29c3.77-7.09,5.03-13.11,5.03-13.11
		c-0.72-1.72,3.89-6.81,3.89-6.81C644.6,648.81,637.45,632.63,637.45,632.63z"/>
	<path class="st1" d="M166.62,68.92c0,0-7.08-2.11-7.08-6.93c0,0-3.01,2.26-4.37-1.05c0,0,1.66,5.27-0.45,5.72
		c0,0-3.61,3.91-6.93,1.05c0,0-1.05,6.62-5.42,6.02c0,0-1.35,8.28-4.52,7.53c0,0,4.97-0.75,5.72-4.97c0,0,0.29-1.76,2.69-2.96
		c0,0,2.23-1.11,2.4-2.74c0,0,0.86-1.2,2.4-0.86c0,0,6.17-1.46,6.17-3.69c0,0,2.74-0.77,3.6,0.6
		C160.85,66.66,167.51,73.25,166.62,68.92z"/>
	<path class="st1" d="M163.93,81.49c0,0,3.3-4.03,3.51,0c0.21,4.03,0,0.52,0,0.52s-5.88,6.5-8.98,6.81c0,0-2.48-0.62-2.99,0.62
		c0,0-7.23,2.37-9.91,2.06c0,0-7.33-0.31-2.58-1.14c0,0,1.96-1.96,4.44-1.24c0,0,5.68-0.93,5.88-2.37c0,0,1.24-1.24,2.89-0.83
		C156.19,85.93,163.73,85.1,163.93,81.49z"/>
	<path class="st1" d="M180.9,90.92c0,0-4.96-0.57-6.01-2.38c0,0-2.48-1.34-4.96,0.29c0,0-6.68,0.38-3.72,1.53
		C166.21,90.34,182.8,92.82,180.9,90.92z"/>
	<path class="st1" d="M147.91,108.68c0,0,7.9-6.32,14.95-6.2c0,0,1.82-1.34,1.7-2.55C164.56,99.93,150.46,101.88,147.91,108.68z"/>
	<path class="st1" d="M146.37,122.92c0,0,5.25-9.79,17.71-10.94c0.2-0.02,0.39-0.03,0.59-0.05c12.89-0.88-1.17,2.49-1.17,2.49
		s-8.79-0.73-17.72,8.35"/>
	<path class="st1" d="M135.74,98.15c0,0,7.34-3.17,11.51-2s-0.5-0.67-0.5-0.67"/>
	<path class="st1" d="M187.79,92.5c0,0-4.55,7.35-0.7,20.31c0,0,3.15,15.76,2.45,20.66c0,0,1.75,11.91,4.9,5.6
		c0,0-5.95-20.31,3.5-29.76C197.95,109.31,187.79,108.61,187.79,92.5z"/>
	<path class="st1" d="M197.53,146.85c0,0,7.11,14.83,14.22,14.22c0,0-11.17,2.84-18.89-19.71s1.59-2.3,1.59-2.3L197.53,146.85z"/>
	<path class="st1" d="M234.82,128.69c0,0,27.66,8.46,30.91,6.51c0,0,8.46,0.65,10.09,2.6c0,0-8.13,1.95-10.41,0
		c0,0-6.18-1.3-7.16-0.98c-0.98,0.33-11.39-3.9-12.04,0c0,0,1.95,6.18-1.95,5.86C240.35,142.35,240.03,135.52,234.82,128.69z"/>
	<path class="st1" d="M232.54,154.69c0,0-0.37-5.39,1.12-6.51c0,0,2.98-2.05,5.02,0.93c0,0,10.79,3.72,11.91-0.37
		c0,0,6.32-5.95,21.39,2.23c0,0,45.64,6.35,47.61,1.93c0,0,30.47,2.7,20.64,10.32c0,0-37.11,6.14-37.11,14.99
		c0,0-12.04-5.41-19.66-7.86c-7.62-2.46-0.98-0.25-0.98-0.25s-18.68-6.39-22.36-9.34C260.1,160.76,247.73,153.29,232.54,154.69z"/>
	<path class="st1" d="M314.43,190.73c0,0-22.82-17.11,25.32-23.89c0,0,45.64,3.57,46.71,13.91c0,0,3.21,5.7,1.07,7.84
		c-0.27,0.27-0.37,0.38-0.34,0.38c0.2-0.04,6.76-6.08,6.76-8.58c0-2.85-43.5,44.93-46.71,41.36c0,0,7.49-11.77,4.99-19.25
		C352.23,202.49,316.93,195.36,314.43,190.73z"/>
	<path class="st1" d="M379.6,204.54c0,0,18.47-9.15,25.76-7.29h5.08C410.44,197.26,384.85,200.99,379.6,204.54z"/>
	<path class="st1" d="M377.73,198.61c0,0,16.1-11.86,27.11-10.68c0,0,6.61,1.36,1.02,1.86C405.86,189.8,387.39,191.16,377.73,198.61
		z"/>
	<path class="st1" d="M302.7,343.83c0,0,5.56-19.45,18.22-21c0,0,4.01-4.63,3.09,4.01c0,0-0.31,13.59-5.56,13.28
		c0,0-16.98,19.76-18.22,17.6C298.99,355.56,302.7,343.83,302.7,343.83z"/>
	<path class="st1" d="M305.51,334.83c0,0-5.15-64.63,22.01-82.43l6.09-7.03c0,0-19.67,33.25-14.52,53.86c0,0,1.87,19.67,3.75,19.67
		s-1.87,0-1.87,0l2.34,4.68L305.51,334.83z"/>
	<path class="st1" d="M289.5,220.16c0,0,5.23-10.27,22.04-16.07c0,0-3.55-2.8-20.74,10.46c0,0,7.1-13.64,19.05-22.79
		c0,0,3.77-2.86-3.19-0.45c0,0-18.59,18.78-20.4,25.71c0,0-2.03,4.74-0.6,5.12c0,0,2.71-0.38,2.63-1.43c0,0-1.16,8.74-0.77,9.66
		C287.53,230.37,290.03,222.44,289.5,220.16z"/>
	<path class="st1" d="M296.55,192.28c0,0,0.96-8.62-14.84-15.32c0,0-7.56,3.63-20.6-1.69c0,0-13.85-11.98-32.48-6.12
		c0,0-21.3,1.33-30.09-6.92l-7.72-1.33c0,0-7,9.75-11.06,10.76c-0.31,0.08-0.61,0.1-0.88,0.07c-3.82-0.48-4.06,8.35,17.42,14.08
		c0,0,45.09,44.85,77.06,37.93C273.36,223.72,295.18,208.31,296.55,192.28z"/>
	<path class="st1" d="M409.48,350.39"/>
	<path class="st2" d="M522.03,619.48c0,0,10.63-16.55,21.77-9.8c0,0,7.59,6.75-4.05,26.03c0,0,7.09,17.35,25.82,9.16
		c0,0,16.2-3.86,23.8,2.41c0,0,16.71,14.94,24.3,10.61c0,0,25.82-9.16,21.77,1.93c0,0,8.61,16.87-25.82,27.48
		c0,0-25.31,14.46-34.43,9.64c0,0-7.09,10.61-8.61,10.61s-21.77,2.89-34.43-8.68C532.16,698.86,481.02,672.66,522.03,619.48z"/>
	<path class="st2" d="M530.14,695.82c0,0-31.62,31.15,10.23,39.99c0,0,13.48,1.39,14.41,6.51c0.93,5.11,0.93,1.86,0.93,1.86
		s29.42,19.51,24.64-13.95c0,0,20.92-29.76-7.44-33.01C572.91,697.22,555.71,713.96,530.14,695.82z"/>
	<path d="M575.99,696.35c0,0-37.75,4.62-46.89-2.82c0,0-4.06,3.89-1.52,5.75c0,0,38.41,11.84,53.13,0.51
		C580.7,699.79,584.81,695.96,575.99,696.35z"/>
</g>
<g id="Capa_2">
	<path d="M577.6,462.45c-4.39-4.1-5.62-11.44-5.94-16.13c-3.35-10-4.31-21.03-3.28-31.24c0.03-1.12,0.11-2.23,0.22-3.34
		c-0.06-1.94-0.07-3.88-0.06-5.8c0.01-1.44,0.11-2.89,0.27-4.33c-0.23-5.45-0.51-9.97-0.51-9.97c-1.03-1.41,0.72-5.05,0.72-5.05
		c1.03-0.1,2.68-11.22,2.68-11.22c0.52-2.12,2.68-1.09,2.68-1.09c3.83-0.83,4.25-8.33,4.25-8.33c3.19-23.96-18.06-24.59-18.06-24.59
		c-0.42,2.08-9.9,1.67-9.9,1.67c-16.33-1.28-25.25,5.06-25.25,5.06c-18.8,13.73-9.42,28.61-9.42,28.61
		c-2.41,8.88,2.66,45.06,2.66,45.06c0.83,1.83,1.28,10.43,1.28,10.43c-0.25,1.82-0.08,2.93,0.24,3.6c-2.93-0.34-8.02,1.08-8.02,1.08
		c-7.66-0.21-14.85-10.85-14.85-10.85c-0.23-10.31-21.67-21.42-21.67-21.42c-1.29-0.9-3.19-2.33-5.32-3.97
		c-6.74-2.51-11.99-7.22-16.95-12.33c-2.27-2.11-4.47-4.23-6.63-6.39c-9.98-6.24-24.45-12.7-24.45-12.7l0.45,1.91
		c7.28,21.4-18.19,25.68-18.19,25.68c-57.11,17.48-88.29-23.59-88.29-23.59c-9.24-10.49,0.73-32.41,0.73-32.41
		c-3.65,1.91-9.4,8.61-9.4,8.61c-33.7,21.15-35.59,45.68-35.59,45.68s-8.97,36.24,25.79,55.29c0,0,7.11,4.48,17.62,5.34
		c0,0,4.49,0.96,5.06,1.72c0,0,22.54,10.6,32,18.62l18.51,17.04c0.15,0,0.8,0.95,0.8,0.95l1.61,5.13
		c5.11,12.44,21.59,27.89,21.59,27.89c1.9,3.15,25.37,39.71,25.37,39.71c3.17,6.98,16.59,23.19,16.59,23.19
		c0.37,0.23,2.88,3.18,2.88,3.18c7.77,8.32,15.9,13.04,15.9,13.04c0.2,0.08,3.03,1.98,3.03,1.98c13.73,8.57,21,7.9,21,7.9
		c1.01,0.55,4.34,1.38,4.34,1.38l0.13-0.07c0.8-0.11,0.09-1.78,0.09-1.78c0-0.24-0.08-0.51-0.24-0.8
		c-2.31-4.33-20.77-13.38-20.77-13.38c-10.9-4.66-5.51-31.05-5.51-31.05c1.08-9.93,11.93-8.51,11.93-8.51l92.21,15.25
		c7.23,0,8.68-8.15,8.68-8.15c-1.08-6.03,2.84-5.84,2.84-5.84c2.18-1.6,1.27-8.55,1.27-8.55l6.85-5.74c7-4.92,12.8-24.29,12.8-24.29
		c-0.88-4.92,3.67-9.22,3.67-9.22C601.63,494.7,577.6,462.45,577.6,462.45z"/>
</g>
</svg>
