<?xml version="1.0" encoding="utf-8"?>
<!-- Generator: Adobe Illustrator 27.0.0, SVG Export Plug-In . SVG Version: 6.00 Build 0)  -->
<svg version="1.1" id="Capa_1" xmlns="http://www.w3.org/2000/svg" xmlns:xlink="http://www.w3.org/1999/xlink" x="0px" y="0px"
	 viewBox="0 0 770.77 870.16" style="enable-background:new 0 0 770.77 870.16;" xml:space="preserve">
<style type="text/css">
	.st0{display:none;}
	.st1{fill:#E5E1DF;}
	.st2{fill:#B5B5B5;}
	.st3{fill:#CECDCC;}
	.st4{fill:#A8A7A7;}
	.st5{fill:#757373;}
	.st6{fill:#131613;}
	.st7{fill:#686868;}
</style>
<g id="Capa_1_00000151510469215989743640000011429202327075409045_" class="st0">
</g>
<g id="Capa_2_00000165945139914432908080000001114578684844072331_">
</g>
<g id="Capa_3">
</g>
<g id="Capa_4">
</g>
<g id="Capa_5">
</g>
<g id="Capa_6">
</g>
<g id="Capa_9">
</g>
<g id="Capa_10">
</g>
<g id="Capa_11">
</g>
<g id="Capa_12">
</g>
<g id="Capa_7">
</g>
<g id="Capa_8">
	<path class="st1" d="M32.07,362.76c0,0,9.79-21.1,36.7-37.32c0,0,19.71-13.87,55.73-21.12c0,0,29.25-3.38,39.64-9.43
		c0,0,42.3-15.71,57.04-18.85c0,0,26.76-9.02,31.44-14.93c0,0,9.98-6.52,13.04-6.32c0,0,7.13-15.49,43.4-14.47
		c0,0,24.86-7.34,26.08-9.37c0,0,61.25-33.76,121.28-16.75c0,0-22.83,9.63-28.97,15.59c0,0-4.65,5.02-12.28,6.88
		c0,0-59.54,35.35-80.75,72.57c0,0-29.13-5.74-39.89,2.46c0,0-50.23,28.57-60.99,27.68c0,0-20.5,3.72-33.44-1.54
		c0,0-20.34,1.56-27.77,2.17c0,0-24.57,3.18-25.63,2.58c0,0-18.07,1.34-19.29,13.6c0,0-3.33,19.27-23.48,12.26
		c0,0-11.21-9.81-20.85-8.94c0,0-8.58,4.38-17.87,3.33c0,0-2.71,0.08-3.77,3.12c0,0-1.67,3.65-8.2,2.43c0,0-4.86,2.13-7.6,0.76
		c0,0-2.13-0.3-2.89,1.22c0,0-6.38,8.66-16.11,1.37c0,0-5.32-5.17-0.91-6.99C25.74,364.75,31.72,363.81,32.07,362.76z"/>
	<path class="st2" d="M382.6,259.62c0,0-30.69-8.44-55.01,12.56c0,0-6.97,8.59-24.13,7.71c0,0-22.7,3.26-25.89,15.12
		c0,0-10.36,5.68-23.42,4.75c0,0-34.37-5.07-51.47,25.8c0,0-8.67,13.44,13.44,15.2c0.37,0.03,0.75,0.06,1.14,0.08
		c23.53,1.38,32.35-3.85,32.35-3.85s25.77-16.5,32.37-17.94c0,0,10.48-2.84,13.92-7.33c0,0,14.88-8.3,38.17-0.52
		C334.07,311.21,358.3,275.46,382.6,259.62z"/>
	<path class="st2" d="M200.42,338.02c0,0-7.09-7.82-2.93-17.85c0,0-8.56,2.2-10.76,0.24c0,0-8.31-0.98-10.27,3.42
		c0,0-15.4,12.71-17.12,4.89c0,0-1.71-8.56,5.13-14.91c0,0-11.5,0.71-13.92,6.24c0,0-13.83,9.34-17.12,7.95l-17.29,1.04
		c0,0-6.22-0.17-4.32,2.59c0,0,18.85,7.78,19.36,16.94c0,0,14.18-8.13,23.51-6.05C154.71,342.53,201.7,341.29,200.42,338.02z"/>
	<path class="st2" d="M118.73,343.64c0,0,4.29,1.89,0.4-0.94c0,0-11.12-5.67-13.93-8.5l-0.8-1.32c0,0-4.82-4.72-5.49-0.38
		c0,0,1.34,5.48,6.7,6.33C105.6,338.83,118.32,341.94,118.73,343.64z"/>
	<path class="st2" d="M111.72,343.14c0,0-7.53-3.68-2.26,0.84c0,0,7.86,3.18,9.12,5.19c0,0,3.93,1.92,2.18-0.84
		C120.76,348.32,115.32,343.97,111.72,343.14z"/>
	<path class="st3" d="M432.74,225.3l-7.2,5.63c0,0-6.92,4.87-9.48,5.12c0,0-2.43-0.26-6.53,3.84c0,0-51.97,29.59-84.35,83.15
		c0,0-19.23,39.19-26.78,61.34c0,0-4.87,16.55-7.79,17.53c0,0-9.25,12.66-12.41,27.99c0,0-6.09,15.82-7.55,33.83
		c0,0-6.57,27.26-8.28,27.26l-12.66,30.91c0,0-12.41,26.29-13.63,38.22c0,0-11.93,28.48-24.1,46.49c0,0-7.39,11.56-9.31,19.47
		c0,0-2.67,1.39-3.95,11.97c0,0-0.79,3.42-1.51,4.5c0,0-5.18,7.47-6.39,31.09c0,0-2.17,20.24,0.84,26.99c0,0-0.72,8.19,7.35,12.41
		l-0.12,4.94c0,0-0.6,6.15,6.39,2.29c0,0,5.39-2.95,6.71-11.91c0,0-1.32-27.16,22.94-43.25c0,0,24.26-6.59,27.16-18.46
		c0,0,2.9-5.8-2.64-11.87c0,0-10.02-10.02-4.22-19.51c0,0,8.04-18.38,13.52-25.61c0.18-0.32,0.37-0.65,0.57-0.97
		c0.6-0.96,1.23-1.89,1.93-2.76c-0.12,0.04-0.2,0.07-0.2,0.07s23.73-25.32,27.43-35.6c0,0,7.12-9.77,10.33-11.56
		c0,0,13.55-3.92,22.82-47.07c0,0,0.71-37.09,22.47-60.27c0,0,23.18-25.32,27.1-26.75c0,0,13.91-18.9,24.96-39.58
		c0,0,12.84-21.75,28.17-19.61c0,0,18.02,6.45,24.05-9.05c0,0,8.15-70.3,6.65-103.78C465.06,232.74,470.87,207.51,432.74,225.3z"/>
	<path class="st4" d="M461.2,318.89c0,0,0.47,24.93-12.83,27.97c0,0-13.3,1.52-20.52-0.19c0,0-11.21,3.99-12.73,8.17
		c0,0-10.74,10.72-12.81,18.75c0,0-17.04,33.23-26.28,36.57c0,0-18.27,14.93-21.81,19.65c0,0-11.99,11.79-20.63,13.36
		c0,0-19.65,10.81-25.35,20.04c0,0-9.24,13.95-7.07,2.95c0,0,10.58-29.91,19.08-34.38c0.32-0.17,0.64-0.3,0.96-0.4
		c0,0,19.68-12.33,20.38-17.63c0,0,55.22-57.4,53.18-68.62c0,0,7.47-23.09,1.09-26.12c0,0-9.07-11.75-2.02-17.8
		c0,0,5.59-3.71,12.12-0.78c0,0,11.71,1.58,10.81-5.86c0,0,2.7-9.68-0.45-12.61c0,0-13.51-13.06-0.68-15.09c0,0,16.66-4.5,23.2,4.73
		c0,0,3.83,12.84,11.26,12.16C450.13,283.78,460.57,297.03,461.2,318.89z"/>
	<path class="st4" d="M305.48,543.21c0,0,2.52-3.43,6.52-6.03c0.58-0.63,1.16-1.26,1.72-1.91c0.55-0.64,1.09-1.29,1.63-1.94
		c3.97-7.43,12.42-27.19-6.18-32.67c0,0-6.05-4.91-6.05-9.83c0,0-9.98-13.51-17.18,2.06c0,0-1.95,8.18-7.59,14.41
		c0,0-10.9,8.37-9.73,20.83c0,0-2.42,8.38-6.76,12.54c0,0-11.46,13.69-10.28,27.13c0,0,4.01,24.28-2.83,39.6
		c0,0-1.89,12.26,6.84,6.84c0,0,6.6-19.09,18.15-27.58c0,0,9.7-12.23,13.81-18.68C287.54,567.95,301.56,544.1,305.48,543.21z"/>
	<path class="st4" d="M223.78,629.56c0,0,11.25,6.33,14.06,0.7c0,0,5.45-4.47,8.96-2.87c0,0,2.37-0.37-0.89-1.72
		c0,0-5.38-1.73-8.06,1.15c0,0-8.06,4.42-10.56,0.96C227.28,627.78,222.58,625.37,223.78,629.56z"/>
	<path class="st4" d="M210.43,640.01c0,0-5.18-4.53,0.43-5.39c0,0,7.6-1.16,10.08,1.3c0.35,0.35,0.6,0.78,0.71,1.29
		c0,0,4.22,2.16,7.13,1.55c0.13-0.03,0.26-0.06,0.39-0.1c0,0,3.91-3.17,4.67-0.57c0,0,2.06,5.52-4.44,5.95
		C229.41,644.04,215.04,644.75,210.43,640.01z"/>
	<path class="st5" d="M580.91,538.96c0,0-29.32,3.11-41.75-18.66l-4.89-4l-2.22,0.22c0,0-11.2-46.73-16.42-46.41
		c0,0,2.06-9.18,5.54-12.34c0,0,1.42-5.86,0.95-6.8c0,0,0.65-17.76,12.38-21.42l36.41,45.41L580.91,538.96z"/>
	<path class="st5" d="M515.97,467.98c0,0-2.45-7.26-11.49-8.75c0,0-9.03-3.1-11.74,1.26c0,0-30.77,21.81,1.62,46.43
		c0,0-1.99,20.81,28.9,15.23c0,0,8.37-1.52,9.12-6.9l-8.79-39.39L515.97,467.98z"/>
	<path class="st6" d="M514.52,470.13c0,0,19.45,39.53,16.23,46.74c0,0,1.69,1.8,3.99-0.34c0,0-2.5-40.05-17.91-50.16
		C516.83,466.38,513.29,466.72,514.52,470.13z"/>
	<path class="st1" d="M594.26,648.22c0,0,1.86,11.45,3.1,17.95c0,0,1.55,13.46-2.94,17.95c0,0-1.5,4.96-7.7,10.83
		c0,0-6.09,7.29-8.7,13.05c0,0-2.83,5.33-5.33,7.5c0,0-3.92,3.7-4.35,5.44l-4.68,4.79l-6.42,5.98c0,0-6.31,3.92-3.81,5.87
		c0,0,0.57,1.28,1.77,1.19c0,0-1.21,2.55-0.28,2.76c0,0-2.26,2.05-2.77,2.16c0,0-4.93,1.13-1.54,4.93c0,0,5.14,3.6,9.04,1.64
		c0,0,3.29-3.8,4.83-4.73c0,0,11.71-8.01,12.02-8.01l1.03-0.31c0,0,8.63,1.23,9.86-2.16l12.02-13.66c0,0,6.27-1.34,7.5-5.44
		c0,0,8.32-11.09,9.66-11.51c0,0,10.99-6.68,9.04-19.62l0.51-14.48c0,0-0.82-22.29-2.36-24.35L594.26,648.22z"/>
	<path class="st2" d="M592.53,711.97c0,0-17.41,27.67-26.27,29.07l-3.58,0.62c0,0-2.49,3.73,2.33,3.73l9.33-6.53l2.95-2.95
		c0,0-0.31-1.4,2.33-2.49c0,0,3.11-3.42,4.2-5.28c0,0,3.58-6.22,4.97-7.15l4.04-7.77C592.84,713.22,595.02,710.88,592.53,711.97z"/>
	<path class="st2" d="M554.82,737.2c0,0-1.19,1.55,0.6,1.67c0,0,12.42-9.07,13.01-12.3c0.6-3.22,0-0.48,0-0.48s2.87-6.45,3.7-7.4
		l1.07-1.67c0,0-3.82,3.82-4.78,7.04c0,0-0.96,1.43-1.07,2.75C567.35,726.81,555.17,737.32,554.82,737.2z"/>
	<path class="st2" d="M601.62,717.95c0,0,2.94-5.31-2.18-7.11c0,0-1.52-1.33,0.28-1.33C599.72,709.51,607.4,714.82,601.62,717.95z"
		/>
	<path class="st4" d="M599.85,707.47c0,0-1.6-1.18,0.14-1.18c0,0,9.19,3.2,6.4,8.28c0,0-0.42,1.39-0.84,0.84
		C605.56,715.41,608.13,709.4,599.85,707.47z"/>
	<path class="st1" d="M723.83,671.04c0,0-4.23-21.99-4.09-25.8l-21.29-4.79l-7.29,11.49c0,0,2.95,1.35,2.95,5.23
		c0,0,0.92,9.78,2.95,12.36c0,0,0.17,15.59-2.42,17.37c-0.15,0.33-0.29,0.66-0.45,0.98c-0.42,0.88-2.01,3.4-2.54,4.2
		c-0.53,0.88-1.09,1.75-1.68,2.59c-0.1,0.14-0.21,0.27-0.31,0.41c-0.28,1.15-3.42,14.12-6.07,14.12c0,0-5.54,4.61-5.9,7.57
		l-10.89,11.26c0,0-5.72,4.06-4.98,7.75c0,0-3.69,4.22-5.24,4.36c0,0-4.51,4.37,3.81,6.91c0,0,4.09-0.85,4.09-1.97
		c0,0,4.65,3.81,8.46,0.28c0,0,6.63-5.5,7.75-5.64c0,0,10.29-5.5,11.28-9.02l4.93-6.06l-0.99,12.55c0,0-3.1,7.19,1.97,8.18
		c0,0,6.2-0.56,6.91-6.63c0,0,1.27-6.34,2.82-8.6c0,0,1.69-6.91,0.56-10.71c0,0,5.08-4.65,5.5-10.01c0,0,11.42-11.84,10.29-23.12
		C723.97,686.26,725.53,677.1,723.83,671.04z"/>
	<path class="st7" d="M710.2,546.28c-6.11-8.48-7.86-25.92-7.86-25.92c-0.01-0.42-0.04-0.84-0.07-1.28
		c-1.63-22.83-25.79-70.65-25.79-70.65c-6.66-5.63-9.47-38.65-9.47-38.65c3.58-0.26,4.99-21.5,4.99-21.5
		c-0.75-8.22,2.99-23.21,2.99-23.21c8.39-27.09-7.36-53.09-10.62-58.04c-0.87-0.59-1.66-1.27-2.37-2.03
		c-10.61-7.84-31.26-37.75-31.26-37.75c-0.02-0.12-0.06-0.25-0.09-0.37c-1.22-1.61-2.27-3.32-3.34-5.08
		c-0.34-0.56-0.61-1.16-0.85-1.78c-8.05-8.86-24.99-18.67-31.74-22.4c-1.54-0.47-3.05-1.04-4.49-1.77
		c-8.34-2.17-42.13-18.73-42.13-18.73c-35.82-17.74-75.01-6.24-75.01-6.24c-40.96,5.7-55.88,23.87-55.88,23.87
		c19.33-13.23,35.69-14.88,35.69-14.88c13.25,0.62,8.48,21.11,8.48,21.11l-2.08,71.79c0.1,0.83,0.17,1.66,0.23,2.52
		c0.06,0.93,0.01,1.87-0.11,2.81c0.82,12.51-5.14,25.44-5.14,25.44l0.62,0.21c9.74,5.9,27.94-12.94,27.94-12.94
		c1.79-4.36,6.66-7.43,6.66-7.43c4.36,0.26,15.63-9.74,15.63-9.74l1.08,1.22c8.07,11.59,14.91,17.39,14.91,17.39
		c4.14,2.69,5.09,14.22,5.09,14.22c-1.42,8.82,5.44,64.06,5.44,64.06c-1.85,25.86,20.52,49.04,20.52,49.04
		c5.54,2.46,6.98,13.54,6.98,13.54c-1.85,12.31,17.44,48.43,17.44,48.43c3.28,2.67,5.34,24.21,5.34,24.21
		c-1.85,4.51,4.1,50.28,4.1,50.28l7.18,51.92c18.06,3.49,32.01-1.85,32.01-1.85l1.03-9.44l4.51-53.15
		c1.85-6.36-3.69-44.12-3.69-44.12c-5.13-5.75-8.82-23.8-8.82-23.8c0.41-11.08-6.77-29.14-6.77-29.14
		c-2.67-2.05-10.88-53.76-10.88-53.76c0.82-9.85,14.16-16.42,14.16-16.42c4.51,0.62,6.98-9.64,6.98-9.64s-0.21,4.92,0.82-0.41
		c1.03-5.34,8-8.62,8-8.62c-0.41-4.92,3.49-11.08,3.49-11.08c2.26,0.62,8.96-14.66,8.96-14.66c1.3,34.96-5.48,47.75-5.48,47.75
		l-8,2.26l3.82,28.16L646,494.94l3.89,5.92c1.69,11.16,7.1,23.17,7.1,23.17c8.96,14.72,9.81,47.02,9.81,47.02
		c-4.06,16.07,12.35,39.92,12.35,39.92c4.4,6.26,10.99,42.79,10.99,42.79l1.01-1.86c23.17-18.1,30.62-0.68,30.62-0.68l2.54-45.67
		C725.84,584.27,710.2,546.28,710.2,546.28z"/>
	<path class="st1" d="M644.77,368.82c0,0-1.41-2.34-2.83,4.78c0,0-0.82,3.86-5.3,7.62c0,0-3.42,1.93-5.18,7.72
		c-1.77,5.79-1.65,5.99-7.54,10.16c0,0-1.77,1.12-1.18,4.06c0,0-1.77,5.79-8.36,9.25c0,0-13.9,5.39-16.02,13.51
		c0,0-3.69,5.71,0.78,16.17l9.06,36.89l4.55,14.1c0,0,3.52,4.28,2.9,12.13c0,0,2.9,6.96,2.07,8.92c0,0,0.08,1.97,1.52,0.61
		c0,0,4.78-3.12,7.68-3.18c0,0,18.41-1.14,17.27-6.85c0,0-0.95-10.06,1.28-11.88c0,0,6.92-5.26,5.51-8.6c0,0,1.29-3.03,2.58-2.93
		c0,0,2.7-4.96,5.86-5.06c0,0,5.74,1.31,6.1-4.96c0,0,3.63-10.72-12.55-19.52c0,0-17.82-7.38-16.3-17.9c0,0,0.59-17.8,3.05-18.81
		c0,0,5.28-11.33,4.92-14.46c0,0,3.63-15.17,1.06-22.05C645.7,378.54,643.72,372.45,644.77,368.82z"/>
</g>
</svg>
